# xmcd
#
# Track frame offsets: 
#        150
#        24046
#        36181
#        51367
#        75471
#        93561
#        110382
#        122994
#        145420
#        160178
#        179869
#        196269
#        222830
#        236364
#        262004
#        274506
#
# Disc length: 3886 seconds
#
# Revision: 1
# Processed by: cddbd v1.5.2PL0 Copyright (c) Steve Scherf et al.
# Submitted via: ExactAudioCopy v0.99pb4
#
DISCID=e00f2c10
DTITLE=Rita Edmond - Sketches of a Dream
DYEAR=2008
DGENRE=Jazz
TTITLE0=Dindi
TTITLE1=Star Eyes
TTITLE2=You'd Be So Nice To Come Home To
TTITLE3=Body And Soul
TTITLE4=All The Way
TTITLE5=On The Street Where You Live
TTITLE6=My Romance
TTITLE7=Never Let Me Go
TTITLE8=Day By Day
TTITLE9=Out Of Nowhere
TTITLE10=Just In Time
TTITLE11=Here's that Rainy Day
TTITLE12=You Stepped Out of a Dream
TTITLE13=Misty
TTITLE14=Almost Like Being in Love
TTITLE15=Our Love Is Here To Stay
EXTD=YEAR: 2008
EXTT0=
EXTT1=
EXTT2=
EXTT3=
EXTT4=
EXTT5=
EXTT6=
EXTT7=
EXTT8=
EXTT9=
EXTT10=
EXTT11=
EXTT12=
EXTT13=
EXTT14=
EXTT15=
PLAYORDER=
